<svg xmlns="http://www.w3.org/2000/svg" width="290" height="70" viewBox="0 0 290 70">
  <g id="Group_6899" data-name="Group 6899" transform="translate(-94 -27)">
    <rect id="Rectangle_947" data-name="Rectangle 947" width="290" height="70" transform="translate(94 27)" fill="rgba(255,255,255,0)"/>
    <g id="Group_1724" data-name="Group 1724" transform="translate(-72.145 -310.918)">
      <g id="Group_1716" data-name="Group 1716" transform="translate(175.145 342.918)">
        <g id="Group_1714" data-name="Group 1714" transform="translate(6.675 6.962)">
          <path id="Path_3765" data-name="Path 3765" d="M188.67,365.48c.916-.735,1.013-.488.553.84-.934,2.689-.524,4.811,1.311,5.591,2.273.967,3.367,2.27,3.587,4.6.323,3.424,1.531,3.7,2.721.742a4.755,4.755,0,0,0,.166-3.1c-.345-1.221-.524-2.074,0-1.96.918.2,1.512,1.773,1.324,3.5-.288,2.638-1.192,4.582-3.093,5.8-1.07.551-1.946-.363-2.276-2.8-.344-2.538-1.035-4.106-2.4-4.716a5.169,5.169,0,0,1-3.216-6.317A3.348,3.348,0,0,1,188.67,365.48Z" transform="translate(-187.185 -359.752)" fill="#ef6700" fill-rule="evenodd"/>
          <path id="Path_3766" data-name="Path 3766" d="M206.916,361.063c-.476-3.4-2.734-6.567-6.552-5.3a8.183,8.183,0,0,0-5.048,3.959c-.45.894,0,1.141.609.362,1.7-2.168,3.343-3.3,5.14-3.238,2.4.107,3.821,2.029,4.354,5.753a12.486,12.486,0,0,0,1.336,3.792c1.1,2.147,1.66,4.136.767,5.585-.641,1.041-1.678-.2-2.969-3.142-1.24-2.824-2.907-4.234-4.526-4.454-1.472-.154-2.471,1.028-2.154,1.757.109.251.848.165,1.632.384,2,.557,3.362,2.2,4.317,4.268,1.322,3.284,3.155,4.235,4.194,2.709,1.7-2.5,1.379-5.5,0-8.689A14.6,14.6,0,0,1,206.916,361.063Z" transform="translate(-190.727 -355.476)" fill="#ef6700" fill-rule="evenodd"/>
          <path id="Path_3767" data-name="Path 3767" d="M193.506,361.294l.534-.651q2.461-2.757,4.392-2.716c2.348-.259,3.96,1.648,4.678,5.751a16.692,16.692,0,0,0,1.754,4.664c1.043,2.51,1.121,4.307-.014,5.05-.577.377-1.5-1.147-2.878-4.062-1.348-2.858-3.207-4.341-5.123-3.8-1.4.392-1.862,1.71-1.015,1.847a5.687,5.687,0,0,1,2.847.983c.343.4-.25.6-.557.638-.375.05-.285.974.277,2.829a4.876,4.876,0,0,1-.893,3.4q-1.671,2.138-2.079-1.253.019-4.027-4.286-5.609-2.115-1.952-.491-5.876.913-1.744,2.241-1.433Q192.663,362.061,193.506,361.294Z" transform="translate(-188.416 -356.557)" fill="#fff" fill-rule="evenodd"/>
          <path id="Path_3768" data-name="Path 3768" d="M200.519,361.4a4.238,4.238,0,0,1-2.338,3.154c-1.636.965-2.784,1.266-3.141.606-.407-.752.258-1.6,1.645-1.5a2.917,2.917,0,0,0,2.721-1.472C200,361.3,200.565,361.03,200.519,361.4Z" transform="translate(-190.632 -358.043)" fill="#ef6700" fill-rule="evenodd"/>
        </g>
        <g id="Group_1715" data-name="Group 1715">
          <path id="Path_3769" data-name="Path 3769" d="M209.067,398.857a2.006,2.006,0,0,0,.544.582c5.436,4.832,19.152-1.109,15.195-9.152-.7-1.428-2.262-3.719-4.556-3.154-2,.493-5.224,5.961-7.371,8.014-1.429,1.365-2.417,2.365-3.812,3.71Zm-25.089-9.725c-2.992-1.725-4.891,3.214-2.221,4.433,3.116,1.422,4.9-2.886,2.221-4.433Zm32.615,14.8-4.844-.4c-2.864-.885-3.444-1.865-5.458-2.913-6.261,2.6-12.9,3-18.8-1.434-4.008-3.012-1.925-3.065-4.652-3.4-5.735-.71-5.685-6.852-1.726-8.622a4.554,4.554,0,0,1,5.593,1.811c1.584,2.541.126,4.154-.623,5.93,2.249,2.068,3.72,3.808,8,4.79,3.3.757,8.2.857,10.4-1.194-2.2-4.033-3.56-4.871-5.655-11.011-.662-1.941-1.047-4.7-2.239-5.932-1.426-1.474-2.584-2.983-4.154-4.484a12.092,12.092,0,0,1-9.23-3.457c-3.241-2.958-11.386-15.579-6.574-22.184l1.337-1.826c.7-.508,2.033-.4,2.941-.336a4.569,4.569,0,0,1,.693,1.864c-2.14,2.443-5.511.873-4.254,7.03a34.281,34.281,0,0,0,3.7,8.741,18.294,18.294,0,0,0,5.941,6.486c4.041,2.455,5.744.6,9.522-.659,3.816-1.269,5.218-1.838,6.257-6.2,1.21-5.076-.709-16.376-4.864-19.358-2.24-1.608-2.619.975-4.995.027-2.648-1.057.493-3.015,1.3-3.508a6.756,6.756,0,0,1,1.136.409c2.888.931,3.99.439,6.3,3.974a26.877,26.877,0,0,1,3.133,8.594c1.857,8.327.864,13.764-4.438,17.646.009,6.323-.9,6.993,1.3,12.839,1.342,3.568,3.207,7.658,5.3,9.855,5.675-2.545,10.748-17.891,18.046-10.81C231.081,392.123,229.247,400.535,216.593,403.935Z" transform="translate(-175.145 -343.265)" fill="#ef6700" fill-rule="evenodd"/>
          <path id="Path_3770" data-name="Path 3770" d="M207.083,347.544a2.314,2.314,0,1,0-2.238-2.313A2.28,2.28,0,0,0,207.083,347.544Z" transform="translate(-188.38 -342.918)" fill="#ef6700" fill-rule="evenodd"/>
          <path id="Path_3771" data-name="Path 3771" d="M181.949,355.888a2.314,2.314,0,1,0-2.237-2.313A2.28,2.28,0,0,0,181.949,355.888Z" transform="translate(-177.18 -346.636)" fill="#ef6700" fill-rule="evenodd"/>
        </g>
      </g>
      <g id="Group_1717" data-name="Group 1717" transform="translate(213.165 350.269)">
        <path id="Path_3772" data-name="Path 3772" d="M247.334,362.015q-.017,1.405-.077,4.071t-.068,4.431q0,1.88.068,4.692.059,2.828.077,4.349.017,1.1.084,3.236t.085,3.188q-.288-.032-.889-.114a7.348,7.348,0,0,0-.881-.081,10.3,10.3,0,0,0-2.007.2q.313-7,.313-16.006v-2.337q0-1.407-.017-3.042T244,362.08q-.068-3.825-.169-5.9a6.2,6.2,0,0,0,3.674,0Q247.368,360.069,247.334,362.015Z" transform="translate(-243.727 -356.178)" fill="#ef6700"/>
      </g>
      <g id="Group_1718" data-name="Group 1718" transform="translate(219.472 355.398)">
        <path id="Path_3773" data-name="Path 3773" d="M263.156,380.866c-.1-.011-.266-.03-.491-.059a4.493,4.493,0,0,0-.516-.042,4.809,4.809,0,0,0-1.008.1q-1.3-3.59-2.862-7.561T255.1,365.43q1.405.144,1.981.144t1.973-.144q.526,1.744,1.139,3.463t1.46,3.942q.847,2.223,1.431,3.831,2.624-6.342,4.225-11.236l.153.038a.735.735,0,0,1,.093.03,17.326,17.326,0,0,0,1.8-.068q-.889,2.108-2.155,5.131t-2.277,5.584Q263.918,378.708,263.156,380.866Z" transform="translate(-255.103 -365.43)" fill="#ef6700"/>
      </g>
      <g id="Group_1719" data-name="Group 1719" transform="translate(234.838 355.084)">
        <path id="Path_3774" data-name="Path 3774" d="M297.395,378.912a9.261,9.261,0,0,1-6.216,2.117,8.315,8.315,0,0,1-6.139-2.252,7.676,7.676,0,0,1-2.218-5.792,7.583,7.583,0,0,1,2.675-6.038,9.431,9.431,0,0,1,6.207-2.083,8.712,8.712,0,0,1,5.233,1.533,6.71,6.71,0,0,1,2.43,2.913,9.087,9.087,0,0,1,.695,3.574,8.2,8.2,0,0,1-.69,3.311A7.661,7.661,0,0,1,297.395,378.912Zm-2.049-1.8a9.806,9.806,0,0,0,.974-4.649,9.025,9.025,0,0,0-.5-2.989,5.356,5.356,0,0,0-1.579-2.367,3.975,3.975,0,0,0-2.676-.919,4.194,4.194,0,0,0-2.531.762,4.845,4.845,0,0,0-1.592,1.872,11.147,11.147,0,0,0-.864,4.826,8.617,8.617,0,0,0,.491,2.93,4.952,4.952,0,0,0,1.558,2.236,4.1,4.1,0,0,0,2.667.864A4.521,4.521,0,0,0,295.345,377.108Z" transform="translate(-282.822 -364.864)" fill="#ef6700"/>
      </g>
      <g id="Group_1720" data-name="Group 1720" transform="translate(254.407 355.398)">
        <path id="Path_3775" data-name="Path 3775" d="M322.49,375.041q-.526-.94-.66-1.144c-.057-.1-.116-.144-.178-.144s-.1.049-.1.144q0,.653.034,1.99t.034,2v.618q.033.906.178,2.362-.313-.017-.924-.059t-.914-.042q-.3,0-.923.042t-.915.059l.034-.415c.005-.174.014-.359.025-.554s.022-.345.03-.452.024-.268.047-.483q.1-1.457.1-4.446,0-.668-.017-2.04t-.017-2.05q0-1.592-.135-5l1.558.068q.533,0,1.609-.034t1.618-.033a9.563,9.563,0,0,1,3.641.457,3.608,3.608,0,0,1,1.982,3.294,3.821,3.821,0,0,1-.94,2.655,4.68,4.68,0,0,1-2.566,1.4q.863,1.559,3.988,6.343l.8,1.287q-.33-.017-1.024-.059t-1.025-.042q-1,0-2.041.1l-2.6-4.615Zm-.872-5.656v1.77q0,1.076-.034,1.634a3.775,3.775,0,0,0,2.672-.8,3.217,3.217,0,0,0,.834-2.431,5.627,5.627,0,0,0-.1-1.143,2.251,2.251,0,0,0-.462-1.021,1.645,1.645,0,0,0-.753-.5,3.8,3.8,0,0,0-1.021-.152l-1.134-.034Z" transform="translate(-318.12 -365.43)" fill="#ef6700"/>
      </g>
      <g id="Group_1721" data-name="Group 1721" transform="translate(267.025 355.398)">
        <path id="Path_3776" data-name="Path 3776" d="M342.9,365.574q.618,0,2.007-.144.237.491.475.986t.466,1q.347.728,1.041,2.117.314.652.94,1.973a4.318,4.318,0,0,0,.448.728.008.008,0,0,1-.008-.008,2.076,2.076,0,0,1,.39-.441,5.577,5.577,0,0,0,.381-.694q.407-.719,1.321-2.668.338-.652.83-1.846c.085-.191.179-.406.283-.644s.182-.4.233-.5a.532.532,0,0,0,.119.033.819.819,0,0,1,.127.034,4.648,4.648,0,0,0,.728.042,6.516,6.516,0,0,0,1.143-.11q-.61,1.143-2.24,4.014T349.138,374q-.067,1.728-.068,2.6,0,1.093.246,4.268-.313-.017-.965-.059t-.982-.042a17.743,17.743,0,0,0-1.905.1q.245-2.464.246-5.131.034-.448.034-1.287-.634-1.075-1.215-2.129t-1.19-2.222q-.61-1.169-1.279-2.456t-1.177-2.21Q342.287,365.574,342.9,365.574Z" transform="translate(-340.882 -365.43)" fill="#ef6700"/>
      </g>
      <g id="Group_1722" data-name="Group 1722" transform="translate(289.712 355.296)">
        <path id="Path_3777" data-name="Path 3777" d="M384.583,365.5q.373,0,1.16-.034c.524-.023.923-.033,1.194-.033q1.634,0,2.464.068a11.354,11.354,0,0,1,3.125.626,5.046,5.046,0,0,1,2.108,1.49,7.371,7.371,0,0,1,1.846,5.14,8.556,8.556,0,0,1-.639,3.4,7.935,7.935,0,0,1-2.07,2.769,6.981,6.981,0,0,1-2.578,1.516,10.859,10.859,0,0,1-3.214.423q-2.43,0-3.641-.034a3.341,3.341,0,0,0-.559-.034q-.652,0-1.973.068.2-3.946.2-7.875V370.7q0-.551-.043-1.634t-.059-1.66c-.017-.334-.034-.665-.05-1s-.034-.659-.051-.986Q383.669,365.5,384.583,365.5Zm2.388,14.048a7.52,7.52,0,0,0,2.722-.415,4.249,4.249,0,0,0,1.893-1.625,9.269,9.269,0,0,0,.876-7.232,5.266,5.266,0,0,0-1.088-2.032,3.97,3.97,0,0,0-1.821-1.215,8.631,8.631,0,0,0-2.481-.309q-.255,0-.779.043t-.813.059q-.136,3.784-.135,11.27v1.422Q385.9,379.545,386.972,379.545Z" transform="translate(-381.806 -365.328)" fill="#ef6700"/>
        <path id="Path_3778" data-name="Path 3778" d="M413.225,365.43q.61.016,1.719.08t1.846.064q1.142,0,2.709-.05t2.4-.06q-.034.559-.034,1.669a.921.921,0,0,1,.034.279q-3.3-.279-5.14-.279-.034.8-.034,2.363,0,.414-.017,1.244t-.017,1.245l5.131-.17a6,6,0,0,0-.136,1.041,3.965,3.965,0,0,0,.136.864q-2.244-.169-4.022-.169c-.113,0-.294-.006-.542-.017s-.437-.017-.567-.017v5.716q2.083,0,5.208-.3-.034.55-.034,1.66a.972.972,0,0,1,.034.279q-.679-.017-2.032-.076t-2.032-.06q-.449,0-1.347.035t-1.321.033q-.627,0-2.015.068.026-.211.042-.652t.034-.635q.017-.643.059-2.074t.043-2.151q0-.551.017-1.694t.017-1.71v-2.633q0-.584-.059-1.787t-.076-1.787Z" transform="translate(-395.773 -365.328)" fill="#ef6700"/>
        <path id="Path_3779" data-name="Path 3779" d="M435.739,380.832a6.4,6.4,0,0,0-.9-.067,5.479,5.479,0,0,0-1.042.1q.237-2.421.33-5.038t.084-5.681q0-.6-.017-1.813t-.017-1.829q0-.694-.034-1.075a6.393,6.393,0,0,0,1.007.144,6.33,6.33,0,0,0,1.042-.144q1.338,1.473,2.507,2.726l2.6,2.795q1.434,1.541,2.451,2.646t2.219,2.485v-7.494q0-.559-.064-1.414t-.08-1.287l-.034-.457a6.389,6.389,0,0,0,1.008.144,3.673,3.673,0,0,0,.538-.047c.206-.031.374-.052.5-.064q-.067.847-.068,1.253-.136,1.643-.178,2.845c-.011.474-.023.859-.034,1.152s-.034.655-.051,1.067-.028.8-.034,1.16-.017.652-.017.889v7.036a.615.615,0,0,0-.245-.034,4.355,4.355,0,0,0-.627-.034,5.348,5.348,0,0,0-.965.068q-4.124-4.844-7.392-8.29l-2.43-2.565q-.068,2.082-.068,3.015v2.083q0,3.853.144,5.758Z" transform="translate(-404.976 -365.328)" fill="#ef6700"/>
        <path id="Path_3780" data-name="Path 3780" d="M470.521,368.757q0,.948-.034,2.82t-.034,2.8q0,.467.017,1.423t.017,1.456q0,.585.05,1.8t.051,1.8l-.885-.059q-.631-.042-.953-.042-.3,0-.906.042t-.931.059q.017-.541.076-1.609t.059-1.583q.145-4.844.144-7.663,0-1-.068-2.879-.66,0-1.982.067-1.27.12-2.184.246a3.249,3.249,0,0,0,.1-.94,6.48,6.48,0,0,0-.034-.8.582.582,0,0,1-.034-.14.611.611,0,0,0-.034-.14q1.118.068,1.7.068,2.439.076,4.09.076h2.328q.585,0,1.685-.072t1.812-.072a4.25,4.25,0,0,0-.1.906,6.39,6.39,0,0,0,.1,1.109,25.867,25.867,0,0,0-3.988-.313Z" transform="translate(-417.97 -365.328)" fill="#ef6700"/>
        <path id="Path_3781" data-name="Path 3781" d="M485.365,380.615l1.66-3.852q2.887-6.606,4.683-11.517c.079.006.17.017.275.034s.212.032.322.047a2.294,2.294,0,0,0,.275.022,2.438,2.438,0,0,0,.406-.038c.147-.026.288-.047.424-.064l.177.381q2.787,7.341,5.893,14.708l.136.237v.211q-.33-.017-.965-.059t-.974-.042a17.278,17.278,0,0,0-1.872.1q-.974-3.1-1.566-4.615-.415,0-1.245-.033t-1.253-.034q-.872,0-2.735.067l-.1.314q-.381,1.058-.783,2.188a21.26,21.26,0,0,0-.639,2.113,5.574,5.574,0,0,0-1.076-.1,5.483,5.483,0,0,0-1.042.1Zm4.225-5.8h4.132q-.736-2.066-2.015-5.267-1.2,2.751-2.041,5.064Z" transform="translate(-427.955 -365.246)" fill="#ef6700"/>
        <path id="Path_3782" data-name="Path 3782" d="M514.967,365.43q1.312.144,1.838.144.508,0,1.837-.144-.017.677-.1,1.964t-.08,2.1q-.034.863-.034,2.633v4.267q0,.458.018,1.406t.017,1.431l1.253-.068q.914,0,3.921-.237a4.37,4.37,0,0,0-.076.966,4.479,4.479,0,0,0,.076.973l-3.82-.136q-.507,0-1.532.035t-1.516.033q-.627,0-1.88.068.212-2.9.212-7.315,0-.458.017-1.355t.017-1.355q0-.83-.059-2.489T515,365.887Z" transform="translate(-441.112 -365.328)" fill="#ef6700"/>
      </g>
      <g id="Group_1723" data-name="Group 1723" transform="translate(381.404 355.161)">
        <path id="Path_3783" data-name="Path 3783" d="M560.623,378.076l-.492,1.939a9.664,9.664,0,0,1-4.471.94,16.692,16.692,0,0,1-2.947-.313,8.294,8.294,0,0,1-2.464-1.109,6.925,6.925,0,0,1-1.625-1.6,7.243,7.243,0,0,1-1.423-4.471,10.2,10.2,0,0,1,.589-3.616,7.018,7.018,0,0,1,2.011-2.8A9.459,9.459,0,0,1,556.178,365a9.643,9.643,0,0,1,4.581,1.075q-.1.382-.246,1.046t-.271,1.24h-.314a4.611,4.611,0,0,0-1.647-1.439,4.43,4.43,0,0,0-2.1-.542,4.518,4.518,0,0,0-2.959.974,5.674,5.674,0,0,0-1.749,2.519,9.563,9.563,0,0,0-.558,3.272,7.53,7.53,0,0,0,1.32,4.581,4.781,4.781,0,0,0,1.812,1.41,5.375,5.375,0,0,0,2.244.5,5.619,5.619,0,0,0,2.155-.47,6.3,6.3,0,0,0,1.9-1.19Z" transform="translate(-547.202 -365.002)" fill="#ef6700"/>
        <path id="Path_3784" data-name="Path 3784" d="M580.607,375.041q-.525-.94-.66-1.144c-.057-.1-.115-.144-.178-.144s-.1.049-.1.144q0,.653.034,1.99t.034,2v.618q.034.906.178,2.362-.313-.017-.923-.059t-.914-.042q-.3,0-.923.042t-.915.059l.034-.415c.006-.174.014-.359.026-.554s.021-.345.029-.452.024-.268.047-.483q.1-1.457.1-4.446,0-.668-.017-2.04t-.017-2.05q0-1.592-.135-5l1.558.068q.533,0,1.609-.034t1.617-.033a9.567,9.567,0,0,1,3.641.457,3.608,3.608,0,0,1,1.981,3.294,3.821,3.821,0,0,1-.94,2.655,4.68,4.68,0,0,1-2.566,1.4q.864,1.559,3.988,6.343l.8,1.287q-.329-.017-1.024-.059t-1.025-.042q-1,0-2.04.1l-2.6-4.615Zm-.872-5.656v1.77q0,1.076-.034,1.634a3.778,3.778,0,0,0,2.672-.8,3.218,3.218,0,0,0,.834-2.431,5.585,5.585,0,0,0-.1-1.143,2.245,2.245,0,0,0-.461-1.021,1.645,1.645,0,0,0-.753-.5,3.8,3.8,0,0,0-1.021-.152l-1.135-.034Z" transform="translate(-560.141 -365.193)" fill="#ef6700"/>
        <path id="Path_3785" data-name="Path 3785" d="M598.631,380.615l1.66-3.852q2.887-6.606,4.682-11.517c.079.006.171.017.275.034s.212.032.322.047a2.311,2.311,0,0,0,.276.022,2.448,2.448,0,0,0,.406-.038c.147-.026.288-.047.424-.064l.177.381q2.786,7.341,5.894,14.708l.136.237v.211q-.331-.017-.965-.059t-.974-.042a17.277,17.277,0,0,0-1.872.1q-.974-3.1-1.566-4.615-.415,0-1.245-.033t-1.253-.034q-.872,0-2.735.067l-.1.314q-.381,1.058-.783,2.188a21.126,21.126,0,0,0-.64,2.113,5.565,5.565,0,0,0-1.075-.1,5.484,5.484,0,0,0-1.042.1Zm4.225-5.8h4.132q-.737-2.066-2.016-5.267-1.2,2.751-2.04,5.064Z" transform="translate(-570.12 -365.111)" fill="#ef6700"/>
        <path id="Path_3786" data-name="Path 3786" d="M628.232,365.43q.609.016,1.719.08t1.846.064q1.143,0,2.709-.05t2.4-.06q-.034.559-.034,1.669a.92.92,0,0,1,.034.279q-3.3-.279-5.141-.279-.033.8-.033,2.363,0,.414-.017,1.244t-.017,1.245l5.132-.17a5.989,5.989,0,0,0-.136,1.041,3.958,3.958,0,0,0,.136.864q-2.244-.169-4.023-.169c-.112,0-.293-.006-.542-.017s-.437-.017-.567-.017v2.6l.178,4.75q-.313-.017-.94-.059c-.418-.028-.728-.042-.932-.042s-.516.014-.923.042-.714.048-.923.059q.027-.211.043-.652t.034-.635q.016-.643.059-2.074t.043-2.151q0-.551.017-1.694t.017-1.71v-2.633q0-.584-.059-1.787t-.076-1.787Z" transform="translate(-583.277 -365.193)" fill="#ef6700"/>
        <path id="Path_3787" data-name="Path 3787" d="M653.863,368.757q0,.948-.033,2.82t-.034,2.8q0,.467.017,1.423t.017,1.456q0,.585.051,1.8t.051,1.8l-.884-.059q-.631-.042-.953-.042-.3,0-.906.042c-.406.028-.717.048-.931.059q.017-.541.076-1.609t.059-1.583q.145-4.844.144-7.663,0-1-.068-2.879-.66,0-1.981.067-1.27.12-2.184.246a3.252,3.252,0,0,0,.1-.94,6.483,6.483,0,0,0-.034-.8.578.578,0,0,1-.034-.14.589.589,0,0,0-.033-.14q1.118.068,1.7.068,2.439.076,4.09.076h2.328q.585,0,1.685-.072t1.812-.072a4.249,4.249,0,0,0-.1.906,6.39,6.39,0,0,0,.1,1.109,25.874,25.874,0,0,0-3.989-.313Z" transform="translate(-591.364 -365.193)" fill="#ef6700"/>
      </g>
      <path id="Path_3788" data-name="Path 3788" d="M246.931,407.642a1.479,1.479,0,0,1-.228.25c-.115.109-.18.2-.18.271a.49.49,0,0,0,.18.288,1.468,1.468,0,0,1,.228.266.887.887,0,0,0,.228.2,1.169,1.169,0,0,1,.243.2L244.9,409.1c-1.124,0-1.954-.006-2.476-.006q-2.882,0-5.666.012.879-.428.878-.981v-.143a.427.427,0,0,0-.048-.187.278.278,0,0,1-.065-.154,1.37,1.37,0,0,0-.472-.362q3.737.017,5.178.017c.945,0,2.687-.006,5.178-.017A2.007,2.007,0,0,0,246.931,407.642Z" transform="translate(-27.455 -28.683)" fill="#ef6700" fill-rule="evenodd"/>
      <path id="Path_3789" data-name="Path 3789" d="M246.852,356.082a1.4,1.4,0,0,1-.2.249.478.478,0,0,0-.155.271.513.513,0,0,0,.155.288,1.424,1.424,0,0,1,.2.266.836.836,0,0,0,.2.2,1.043,1.043,0,0,1,.21.2l-2.164-.007c-.97,0-1.687,0-2.137,0q-2.487,0-4.89.012.758-.429.758-.981v-.143a.482.482,0,0,0-.042-.187.3.3,0,0,1-.057-.154,1.224,1.224,0,0,0-.407-.361q3.226.016,4.469.016c.816,0,2.318-.006,4.469-.016A1.807,1.807,0,0,0,246.852,356.082Z" transform="translate(-28.041 -5.707)" fill="#ef6700" fill-rule="evenodd"/>
    </g>
  </g>
</svg>
