<svg xmlns="http://www.w3.org/2000/svg" width="129.483" height="93.653" viewBox="0 0 129.483 93.653">
  <g id="Group_1467" data-name="Group 1467" transform="translate(-201.835 -320.128)" opacity="0.1">
    <path id="Path_3733" data-name="Path 3733" d="M317.917,376.686c0-7.14.071-14.28-.014-21.418-.143-12.054,5.551-20.76,15.853-26.243,6.441-3.429,13.457-5.777,20.217-8.6,1.647-.689,2.512-.166,2.632,1.655.239,3.62.14,6.635-3.753,8.99-5.82,3.522-10.467,8.457-12.33,15.373a21.177,21.177,0,0,0-.581,2.987c-.543,4.546.446,5.633,5.106,5.641,6.018.01,12.036-.034,18.053.011,8.016.061,13.158,5.207,13.191,13.248q.065,16.064,0,32.127c-.027,8.112-5.3,13.271-13.5,13.279q-15.605.016-31.21,0c-8.444-.007-13.67-5.285-13.67-13.788Q317.916,388.313,317.917,376.686Z" transform="translate(-45.003)" fill="#b6b8bd"/>
    <path id="Path_3734" data-name="Path 3734" d="M201.864,376.568c0-7.039.116-14.08-.021-21.116-.249-12.752,5.875-21.591,16.919-27.091,6.09-3.033,12.583-5.254,18.877-7.881,1.882-.785,2.683-.1,2.809,1.785.237,3.53.036,6.394-3.714,8.727-6.625,4.12-11.729,9.794-13.03,18.01-.739,4.667.352,6.068,4.965,6.077,6.019.012,12.038-.023,18.056.01,8.166.044,13.433,5.24,13.465,13.349q.063,16.372,0,32.744A12.33,12.33,0,0,1,247.817,413.7q-16.676.192-33.357.006c-7.317-.07-12.575-5.6-12.595-12.965C201.844,392.685,201.861,384.627,201.864,376.568Z" transform="translate(0 -0.013)" fill="#b6b8bd"/>
  </g>
</svg>
