<svg xmlns="http://www.w3.org/2000/svg" width="35" height="35" viewBox="0 0 35 35">
  <g id="Group_6829" data-name="Group 6829" transform="translate(-112 -4600)">
    <rect id="Rectangle_938" data-name="Rectangle 938" width="35" height="35" transform="translate(112 4600)" fill="rgba(255,255,255,0)"/>
    <g id="placeholder" transform="translate(108.797 4601)">
      <path id="Path_4258" data-name="Path 4258" d="M27.034,12a6.477,6.477,0,1,0,6.477,6.477A6.486,6.486,0,0,0,27.034,12Zm0,11.1a4.627,4.627,0,1,1,4.627-4.627A4.632,4.632,0,0,1,27.034,23.1Z" transform="translate(-6.983 -5.918)" fill="#fff"/>
      <path id="Path_4259" data-name="Path 4259" d="M28.3,3.448a11.771,11.771,0,0,0-16.648,0C7.536,7.562,7.025,15.3,10.543,19.993l9.431,13.62,9.417-13.6C32.925,15.3,32.413,7.562,28.3,3.448ZM28.23,19.161l-8.255,12.07-8.154-12.07c-3.191-4.255-2.892-10.934.822-14.647a10.195,10.195,0,0,1,14.666,0A11.645,11.645,0,0,1,28.23,19.161Z" transform="translate(0 0)" fill="#fff"/>
    </g>
  </g>
</svg>
