<svg xmlns="http://www.w3.org/2000/svg" xmlns:xlink="http://www.w3.org/1999/xlink" width="151" height="171.498" viewBox="0 0 151 171.498">
  <defs>
    <clipPath id="clip-path">
      <rect id="Rectangle_942" data-name="Rectangle 942" width="151" height="171" transform="translate(-0.343 0.5)" fill="rgba(248,194,153,0.5)"/>
    </clipPath>
  </defs>
  <g id="Group_6824" data-name="Group 6824" transform="translate(-524.002 -204.002)">
    <g id="Group_6823" data-name="Group 6823" transform="translate(524.344 204)">
      <g id="Group_6822" data-name="Group 6822" transform="translate(0)" clip-path="url(#clip-path)">
        <path id="Path_8734" data-name="Path 8734" d="M675.111,244.167a8.558,8.558,0,0,0-12.237-7.719L648.424,222a2.849,2.849,0,0,0-4.03,0l-2.649,2.648a15.972,15.972,0,0,0-12.78-14.285l-6.179-1.236a2.85,2.85,0,0,0-3.355,3.353l1.112,5.555a5.756,5.756,0,0,1-1.575,5.21l-10.8,10.793a11.484,11.484,0,0,0,0,16.224,11.26,11.26,0,0,0,5.043,2.917l-1.063,1.063a2.849,2.849,0,0,0,0,4.03l14.107,14.107-7.778,7.78-17.79,9.882a2.845,2.845,0,0,0-.631.477l-72.551,72.549A8.55,8.55,0,0,0,539.6,375.157l72.267-72.267,17.789-9.882a2.852,2.852,0,0,0,.631-.475l42.32-42.321a8.5,8.5,0,0,0,2.5-6.045Zm-28.7-16.122L658.5,240.137l-4.032,4.03-12.09-12.092Zm-8.062,8.06,12.09,12.092-4.029,4.03-12.092-12.09Zm4.03,20.152-4.03,4.032L626.255,248.2l4.03-4.03ZM612.2,246.232a5.777,5.777,0,0,1,0-8.162l10.793-10.795a11.443,11.443,0,0,0,3.136-10.355l-.273-1.364,1.987.4a10.276,10.276,0,0,1,5.251,17.341l-12.938,12.938a5.635,5.635,0,0,1-7.956,0Zm5.993,10.025,4.032-4.03,12.092,12.092-4.03,4.03Zm50.381-10.075-42.037,42.038L608.748,298.1a2.851,2.851,0,0,0-.631.477L535.57,371.127a2.85,2.85,0,0,1-4.032-4.03l72.267-72.267,17.788-9.882a2.776,2.776,0,0,0,.631-.476l42.355-42.286a2.415,2.415,0,0,0,.232-.267,2.851,2.851,0,0,1,3.765,4.264Zm0,0" transform="translate(-524.214 -206.662)" fill="rgba(248,194,153,0.5)"/>
      </g>
    </g>
    <path id="Path_8735" data-name="Path 8735" d="M603.252,218.4a18.786,18.786,0,0,1-10.932-9.48l-1.67-3.34a2.851,2.851,0,0,0-5.1,0l-1.67,3.34a18.786,18.786,0,0,1-10.932,9.48,2.849,2.849,0,0,0,0,5.406,18.777,18.777,0,0,1,10.932,9.481l1.67,3.34a2.851,2.851,0,0,0,5.1,0l1.67-3.34a18.777,18.777,0,0,1,10.932-9.481,2.849,2.849,0,0,0,0-5.406ZM588.1,229.129a24.4,24.4,0,0,0-7.715-8.027,24.4,24.4,0,0,0,7.715-8.027,24.4,24.4,0,0,0,7.715,8.027,24.4,24.4,0,0,0-7.715,8.027Zm0,0" transform="translate(-24.009 -0.002)" fill="rgba(248,194,153,0.3)"/>
    <path id="Path_8736" data-name="Path 8736" d="M633.549,311.547a14.467,14.467,0,0,1-8.418-7.3l-1.336-2.672a2.851,2.851,0,0,0-5.1,0l-1.334,2.672a14.467,14.467,0,0,1-8.418,7.3,2.849,2.849,0,0,0,0,5.406,14.465,14.465,0,0,1,8.42,7.3l1.336,2.672a2.85,2.85,0,0,0,5.1,0l1.334-2.672a14.467,14.467,0,0,1,8.418-7.3,2.849,2.849,0,0,0,0-5.406Zm-12.3,8.051a20.027,20.027,0,0,0-5.156-5.348,20.027,20.027,0,0,0,5.156-5.348,20.027,20.027,0,0,0,5.156,5.348,20.027,20.027,0,0,0-5.156,5.348Zm0,0" transform="translate(-42.907 -50.4)" fill="rgba(248,194,153,0.3)"/>
    <path id="Path_8737" data-name="Path 8737" d="M657.852,266.1a2.849,2.849,0,0,0,0-5.406,10.138,10.138,0,0,1-5.9-5.118l-1-2a2.851,2.851,0,0,0-5.1,0l-1,2a10.138,10.138,0,0,1-5.9,5.118,2.849,2.849,0,0,0,0,5.406,10.138,10.138,0,0,1,5.9,5.118l1,2a2.851,2.851,0,0,0,5.1,0l1-2a10.138,10.138,0,0,1,5.9-5.118Zm-9.452.071a15.709,15.709,0,0,0-2.685-2.774,15.709,15.709,0,0,0,2.685-2.774,15.7,15.7,0,0,0,2.685,2.774,15.705,15.705,0,0,0-2.685,2.774Zm0,0" transform="translate(-58.659 -25.2)" fill="rgba(248,194,153,0.3)"/>
  </g>
</svg>
