<svg xmlns="http://www.w3.org/2000/svg" width="30" height="30" viewBox="0 0 30 30">
  <g id="Group_6897" data-name="Group 6897" transform="translate(-18 -307)">
    <rect id="Rectangle_945" data-name="Rectangle 945" width="30" height="30" transform="translate(18 307)" fill="rgba(255,255,255,0)"/>
    <g id="email" transform="translate(-1.619 251.987)">
      <g id="Group_1703" data-name="Group 1703" transform="translate(19.619 59.013)">
        <path id="Path_3872" data-name="Path 3872" d="M42.525,332.7a2.44,2.44,0,0,0,1.7-.663l-8.236-8.506-.57.423q-.924.7-1.5,1.1a9.137,9.137,0,0,1-1.533.8,4.546,4.546,0,0,1-1.785.41H30.57a4.544,4.544,0,0,1-1.785-.41,9.113,9.113,0,0,1-1.533-.8q-.576-.393-1.5-1.1c-.172-.13-.362-.273-.568-.426l-8.237,8.508a2.44,2.44,0,0,0,1.7.663Z" transform="translate(-16.022 -309.81)" fill="#fff"/>
        <path id="Path_3873" data-name="Path 3873" d="M1.692,200.013A8.883,8.883,0,0,1,0,198.555V211.5L7.5,204Q5.247,202.429,1.692,200.013Z" transform="translate(0 -191.652)" fill="#fff"/>
        <path id="Path_3874" data-name="Path 3874" d="M419.128,200.013q-3.423,2.317-5.819,3.99L420.8,211.5V198.555A9.244,9.244,0,0,1,419.128,200.013Z" transform="translate(-391.675 -191.652)" fill="#fff"/>
        <path id="Path_3875" data-name="Path 3875" d="M26.532,59.013H2.606a2.292,2.292,0,0,0-1.926.871,3.45,3.45,0,0,0-.675,2.178A3.984,3.984,0,0,0,.9,64.349a8.185,8.185,0,0,0,1.9,1.935q.552.4,3.332,2.387c1,.715,1.87,1.337,2.618,1.875.637.458,1.187.854,1.641,1.183l.243.178.448.333q.528.394.878.637t.845.544a4.866,4.866,0,0,0,.935.452,2.518,2.518,0,0,0,.813.151h.032a2.518,2.518,0,0,0,.813-.151,4.855,4.855,0,0,0,.935-.452q.5-.3.845-.544t.878-.637l.448-.333.243-.178,1.645-1.178,5.962-4.267a7.857,7.857,0,0,0,1.983-2.06,4.526,4.526,0,0,0,.8-2.53,2.61,2.61,0,0,0-.772-1.893A2.477,2.477,0,0,0,26.532,59.013Z" transform="translate(-0.006 -59.013)" fill="#fff"/>
      </g>
    </g>
  </g>
</svg>
