<svg xmlns="http://www.w3.org/2000/svg" width="30" height="30.115" viewBox="0 0 30 30.115">
  <g id="Group_6898" data-name="Group 6898" transform="translate(-20 -368.885)">
    <rect id="Rectangle_946" data-name="Rectangle 946" width="30" height="30" transform="translate(20 369)" fill="rgba(255,255,255,0)"/>
    <g id="phone-fill" transform="translate(19.994 368.885)">
      <g id="Group_1704" data-name="Group 1704" transform="translate(0.006)">
        <path id="Path_3876" data-name="Path 3876" d="M22.773,63.073a2.1,2.1,0,0,0-3.172,0c-.742.735-1.483,1.471-2.212,2.218a.437.437,0,0,1-.611.112c-.48-.262-.991-.474-1.452-.76A23.005,23.005,0,0,1,9.78,59.6a13.14,13.14,0,0,1-1.988-3.184.456.456,0,0,1,.112-.586c.742-.717,1.464-1.452,2.194-2.187a2.106,2.106,0,0,0-.006-3.247c-.58-.586-1.159-1.159-1.739-1.745-.6-.6-1.19-1.2-1.795-1.795a2.112,2.112,0,0,0-3.172.006c-.748.735-1.464,1.489-2.225,2.212A3.611,3.611,0,0,0,.027,51.507a10.323,10.323,0,0,0,.8,4.443,27,27,0,0,0,4.792,7.983,29.655,29.655,0,0,0,9.821,7.684,14.2,14.2,0,0,0,5.44,1.583A3.987,3.987,0,0,0,24.3,71.9c.636-.71,1.352-1.358,2.025-2.038a2.12,2.12,0,0,0,.012-3.228Q24.561,64.846,22.773,63.073Z" transform="translate(-0.006 -43.208)" fill="#fff"/>
        <path id="Path_3877" data-name="Path 3877" d="M244.736,105.028l2.343-.4A10.516,10.516,0,0,0,238.184,96l-.33,2.355a8.127,8.127,0,0,1,6.882,6.673Z" transform="translate(-223.115 -90.05)" fill="#fff"/>
        <path id="Path_3878" data-name="Path 3878" d="M252.988,4.939A17.274,17.274,0,0,0,243.084,0l-.33,2.355a15.073,15.073,0,0,1,12.755,12.361l2.343-.4A17.4,17.4,0,0,0,252.988,4.939Z" transform="translate(-227.851)" fill="#fff"/>
      </g>
    </g>
  </g>
</svg>
