<svg xmlns="http://www.w3.org/2000/svg" xmlns:xlink="http://www.w3.org/1999/xlink" width="196" height="196" viewBox="0 0 196 196">
  <defs>
    <clipPath id="clip-path">
      <rect id="Rectangle_939" data-name="Rectangle 939" width="196" height="196" transform="translate(-0.299 -0.299)" fill="rgba(248,194,153,0.5)"/>
    </clipPath>
  </defs>
  <g id="Group_6798" data-name="Group 6798" transform="translate(-426.36 -127.36)">
    <g id="Group_6797" data-name="Group 6797" transform="translate(426.658 127.658)">
      <g id="Group_6796" data-name="Group 6796" transform="translate(0 0)" clip-path="url(#clip-path)">
        <path id="Path_8065" data-name="Path 8065" d="M442.549,229.429c1.8,2.978,3.665,6.056,5.324,9.174a78.525,78.525,0,0,1,9.444,28.221A212.466,212.466,0,0,0,463,300.289c2.14,7.955,6.131,22.76,18.848,22.76,9.974,0,17.69-19.053,22.922-56.625,1.764-12.444,7.144-13.666,9.849-14a1.869,1.869,0,0,1,.3.059c.181.5.357,1.013.549,1.5A71.379,71.379,0,0,0,521.2,264.84c1.108,1.83,2.221,3.665,3.246,5.577a47.13,47.13,0,0,1,5.664,16.917,160.16,160.16,0,0,0,2.633,17.051,1.688,1.688,0,0,0,.03.228c.028.076.052.134.077.208.253,1.1.485,2.2.789,3.289,1.3,4.849,4.019,14.936,12.805,14.936,2.828,0,10.338,0,15.342-35.919.922-6.5,3.368-7.319,4.825-7.53l.4.072c.974.2,3.572.73,4.546,7.467,4.994,35.913,12.5,35.913,15.325,35.913,8.767,0,11.39-9.711,12.8-14.906a133.318,133.318,0,0,0,3.543-20.809,47.23,47.23,0,0,1,5.681-16.93c1.023-1.931,2.143-3.782,3.246-5.629a70.333,70.333,0,0,0,5.69-10.8c5.447-13.83,6.9-32.774-5.348-44.483a31.084,31.084,0,0,0-13.247-7.376c6.646-24.438,2.474-46.725-11.465-60.092-18.754-18-52.188-18.375-73.08-1.359-20.895-17.016-54.325-16.646-73.094,1.368-19.119,18.321-16.786,48.223-8.212,70.095a114.246,114.246,0,0,0,9.15,17.3Zm169.265,22.189a65.145,65.145,0,0,1-5.193,9.819c-1.182,1.948-2.366,3.9-3.435,5.933a53.653,53.653,0,0,0-6.407,19.251,128.334,128.334,0,0,1-3.349,19.805c-1.341,4.9-3.051,10.13-6.48,10.13-1.3-.4-5.7-6.834-8.966-30.338-1.075-7.469-4.328-11.822-9.687-12.917a12.431,12.431,0,0,0-1.28-.211,3.11,3.11,0,0,0-.357.033,3.221,3.221,0,0,0-.378-.036c-6.113.681-9.791,5.1-10.929,13.131-3.275,23.521-7.692,29.952-8.912,30.338-3.516,0-5.217-5.228-6.545-10.149a129.128,129.128,0,0,1-3.338-19.805,53.342,53.342,0,0,0-6.4-19.251c-1.071-2.013-2.244-3.952-3.416-5.884a65.762,65.762,0,0,1-5.225-9.849c-4.655-11.878-6.1-27.948,3.8-37.435s28.548-9.326,39.153.343c.953.93,13.2,12.609,24.178,12.609a3.247,3.247,0,0,0,0-6.495c-5.571,0-12.627-4.815-16.9-8.343a31.945,31.945,0,0,1,22.937-4.624,25.3,25.3,0,0,1,13.34,6.518c9.926,9.5,8.248,26.086,3.786,37.427Zm-165.708-104.9c16.79-16.113,48.431-15.855,66.4.534,1.267,1.233,20.764,19.951,37.917,19.951a3.246,3.246,0,1,0,0-6.493c-11.4,0-25.075-10.78-30.747-15.722,18.3-14.081,47.671-13.59,63.638,1.735,12.28,11.776,15.764,31.9,9.558,54.2a37.565,37.565,0,0,0-26.172,7.039c-13.364-10.222-34.121-9.741-45.872,1.532-10.043,9.625-10.848,24.141-7.793,36.692-8.1,1.48-13.058,7.934-14.673,19.332-5.646,40.374-13.269,51.039-16.513,51.039-7.145,0-10.237-9.268-12.588-17.981a211.485,211.485,0,0,1-5.488-32.469,84.745,84.745,0,0,0-10.166-30.56c-1.741-3.273-3.652-6.428-5.519-9.48a107.669,107.669,0,0,1-8.655-16.316c-7.789-19.911-10.142-46.926,6.678-63.035Zm0,0" transform="translate(-426.744 -127.867)" fill="rgba(248,194,153,0.5)"/>
      </g>
    </g>
    <path id="Path_8066" data-name="Path 8066" d="M467.772,231.93a3.248,3.248,0,0,0,3.133-4.1c-7.25-26.58,9.692-35.343,10.46-35.73a3.246,3.246,0,0,0-2.824-5.843c-.218.107-22.621,11.28-13.9,43.283a3.248,3.248,0,0,0,3.134,2.394Zm0,0" transform="translate(-22.15 -35.987)" fill="rgba(248,194,153,0.37)"/>
    <path id="Path_8067" data-name="Path 8067" d="M535.954,174.193a3.247,3.247,0,1,1-3.248-3.248,3.248,3.248,0,0,1,3.248,3.248Zm0,0" transform="translate(-63.545 -26.683)" fill="rgba(248,194,153,0.37)"/>
    <path id="Path_8068" data-name="Path 8068" d="M692.891,362.683c-4.981,2.824-12.916,12.448-7.282,28.658a3.247,3.247,0,1,0,6.133-2.135c-5.2-14.934,3.928-20.62,4.377-20.886a3.248,3.248,0,1,0-3.228-5.637Zm0,0" transform="translate(-159.054 -145.171)" fill="rgba(248,194,153,0.37)"/>
    <path id="Path_8069" data-name="Path 8069" d="M732.141,353.323a3.247,3.247,0,1,1-3.246-3.249,3.246,3.246,0,0,1,3.246,3.249Zm0,0" transform="translate(-185.055 -137.628)" fill="rgba(248,194,153,0.37)"/>
  </g>
</svg>
