<svg xmlns="http://www.w3.org/2000/svg" width="35" height="35" viewBox="0 0 35 35">
  <g id="Group_6827" data-name="Group 6827" transform="translate(-110.5 -201)">
    <rect id="Rectangle_936" data-name="Rectangle 936" width="35" height="35" transform="translate(110.5 201)" fill="rgba(255,255,255,0)"/>
    <g id="Group_1792" data-name="Group 1792" transform="translate(-1478.617 -688.543)">
      <path id="Path_8059" data-name="Path 8059" d="M1670.606,974.662h-13.147q-7.271,0-14.542,0a2.986,2.986,0,0,0-3.129,3.069q-.015,8.881.01,17.762a3.321,3.321,0,0,0,.31,1.372,2.925,2.925,0,0,0,2.876,1.7l19.72,0,7.935,0a2.872,2.872,0,0,0,2.542-1.24,7.9,7.9,0,0,0,.6-1.416V977.318a6.353,6.353,0,0,0-.3-.94A2.972,2.972,0,0,0,1670.606,974.662Zm-.321,2a2.594,2.594,0,0,1-.167.208q-6.231,6.253-12.466,12.5a1.141,1.141,0,0,1-1.708.031q-6.272-6.283-12.538-12.573c-.037-.037-.07-.08-.146-.169ZM1641.8,995V978.136l8.514,8.437Zm1.454,1.543,8.543-8.465c.057.054.145.133.229.217q1.2,1.2,2.39,2.4a3.171,3.171,0,0,0,4.737.011q1.2-1.2,2.387-2.4a1.565,1.565,0,0,0,.184-.273l8.589,8.513Zm28.509-1.5-8.506-8.424,8.506-8.419Z" transform="translate(-50.164 -79.117)" fill="#fff"/>
    </g>
  </g>
</svg>
