<svg xmlns="http://www.w3.org/2000/svg" width="18" height="18" viewBox="0 0 18 18">
  <path id="Path_8738" data-name="Path 8738" d="M9,0a9,9,0,1,0,9,9A9,9,0,0,0,9,0ZM9,16.2A7.2,7.2,0,1,1,16.2,9,7.21,7.21,0,0,1,9,16.2ZM7.272,7.978a2.371,2.371,0,0,1,.27-.783,1.565,1.565,0,0,1,.531-.553,1.546,1.546,0,0,1,.806-.207,1.506,1.506,0,0,1,.585.117,1.421,1.421,0,0,1,.769.8,1.755,1.755,0,0,1,.122.576h1.611a3.22,3.22,0,0,0-.248-1.161,2.693,2.693,0,0,0-.634-.909,2.789,2.789,0,0,0-.972-.589,3.6,3.6,0,0,0-1.255-.212,3.563,3.563,0,0,0-1.526.3,3.043,3.043,0,0,0-1.08.828,3.481,3.481,0,0,0-.643,1.22A5.079,5.079,0,0,0,5.4,8.878v.248A5.088,5.088,0,0,0,5.611,10.6a3.422,3.422,0,0,0,.644,1.215,3.06,3.06,0,0,0,1.084.824,3.6,3.6,0,0,0,1.53.3,3.331,3.331,0,0,0,1.188-.207,3.167,3.167,0,0,0,.972-.571,2.747,2.747,0,0,0,.666-.846,2.489,2.489,0,0,0,.27-1.035H10.354a1.281,1.281,0,0,1-.135.522,1.258,1.258,0,0,1-.324.41,1.513,1.513,0,0,1-.472.265,1.665,1.665,0,0,1-.545.09,1.57,1.57,0,0,1-.806-.212,1.589,1.589,0,0,1-.536-.558,2.361,2.361,0,0,1-.27-.788A5.311,5.311,0,0,1,7.2,9.126V8.878A5.4,5.4,0,0,1,7.272,7.978Z" fill="#fff"/>
</svg>
